<svg width="32" height="33" viewBox="0 0 32 33" fill="none" xmlns="http://www.w3.org/2000/svg">
<g clip-path="url(#clip0_17_167)">
<path d="M16 16.4999C17.5823 16.4999 19.129 16.0308 20.4446 15.1517C21.7602 14.2726 22.7855 13.0232 23.391 11.5614C23.9965 10.0996 24.155 8.49107 23.8463 6.93922C23.5376 5.38737 22.7757 3.96191 21.6569 2.84309C20.538 1.72427 19.1126 0.962342 17.5607 0.65366C16.0089 0.344979 14.4003 0.503405 12.9385 1.10891C11.4767 1.71441 10.2273 2.73979 9.34824 4.05538C8.46919 5.37097 8 6.91769 8 8.49994C8.00212 10.621 8.84565 12.6546 10.3455 14.1545C11.8453 15.6543 13.8789 16.4978 16 16.4999ZM16 3.16661C17.0548 3.16661 18.086 3.4794 18.963 4.06544C19.8401 4.65147 20.5237 5.48443 20.9274 6.45896C21.331 7.4335 21.4366 8.50586 21.2309 9.54042C21.0251 10.575 20.5171 11.5253 19.7712 12.2712C19.0254 13.0171 18.075 13.525 17.0405 13.7308C16.0059 13.9366 14.9336 13.831 13.959 13.4273C12.9845 13.0236 12.1515 12.34 11.5655 11.463C10.9795 10.5859 10.6667 9.55478 10.6667 8.49994C10.6667 7.08545 11.2286 5.7289 12.2288 4.72871C13.229 3.72851 14.5855 3.16661 16 3.16661Z" fill="#BDCAD6"/>
<path d="M16 19.1675C12.8185 19.171 9.76829 20.4364 7.51862 22.6861C5.26894 24.9358 4.00353 27.986 4 31.1675C4 31.5211 4.14048 31.8602 4.39052 32.1103C4.64057 32.3603 4.97971 32.5008 5.33333 32.5008C5.68696 32.5008 6.02609 32.3603 6.27614 32.1103C6.52619 31.8602 6.66667 31.5211 6.66667 31.1675C6.66667 28.6921 7.65 26.3182 9.40034 24.5678C11.1507 22.8175 13.5246 21.8341 16 21.8341C18.4754 21.8341 20.8493 22.8175 22.5997 24.5678C24.35 26.3182 25.3333 28.6921 25.3333 31.1675C25.3333 31.5211 25.4738 31.8602 25.7239 32.1103C25.9739 32.3603 26.313 32.5008 26.6667 32.5008C27.0203 32.5008 27.3594 32.3603 27.6095 32.1103C27.8595 31.8602 28 31.5211 28 31.1675C27.9965 27.986 26.7311 24.9358 24.4814 22.6861C22.2317 20.4364 19.1815 19.171 16 19.1675Z" fill="#BDCAD6"/>
</g>
<defs>
<clipPath id="clip0_17_167">
<rect width="32" height="32" fill="white" transform="translate(0 0.5)"/>
</clipPath>
</defs>
</svg>
