<svg width="30" height="30" viewBox="0 0 30 30" fill="none" xmlns="http://www.w3.org/2000/svg">
<path d="M13.4652 0C6.04471 0 0 6.04263 0 13.4607C0 20.8787 6.04471 26.9331 13.4652 26.9331C16.6348 26.9331 19.5498 25.8227 21.8536 23.9791L27.4624 29.583C27.7455 29.8543 28.1235 30.0039 28.5156 29.9999C28.9076 29.9959 29.2826 29.8386 29.56 29.5617C29.8374 29.2847 29.9953 28.9102 29.9999 28.5183C30.0045 28.1263 29.8553 27.7482 29.5844 27.4649L23.9755 21.858C25.8213 19.5514 26.9334 16.6328 26.9334 13.4607C26.9334 6.04263 20.8858 0 13.4652 0ZM13.4652 2.99195C19.2683 2.99195 23.9376 7.65962 23.9376 13.4607C23.9376 19.2617 19.2683 23.9411 13.4652 23.9411C7.6622 23.9411 2.99292 19.2617 2.99292 13.4607C2.99292 7.65962 7.6622 2.99195 13.4652 2.99195Z" fill="white"/>
</svg>
